Motion_pl13
version=1
nRows=5
nColumns=43
inDegrees=yes
endheader
time	pelvis_tilt	pelvis_list	pelvis_rotation	pelvis_tx	pelvis_ty	pelvis_tz	hip_flexion_r	hip_adduction_r	hip_rotation_r	knee_angle_r	ankle_angle_r	subtalar_angle_r	mtp_angle_r	hip_flexion_l	hip_adduction_l	hip_rotation_l	knee_angle_l	ankle_angle_l	subtalar_angle_l	mtp_angle_l	lumbar_extension	lumbar_bending	lumbar_rotation	neck_flexion	neck_lateral_bending	neck_rotation	arm_flex_r	arm_add_r	arm_rot_r	elbow_flex_r	pro_sup_r	wrist_flex_r	wrist_dev_r	hand_finger_flex_r	arm_flex_l	arm_add_l	arm_rot_l	elbow_flex_l	pro_sup_l	wrist_flex_l	wrist_dev_l	hand_finger_flex_l
      0.62250000	      0.99472949	    -19.94811226	     87.21282090	      0.02852028	      1.92242284	      1.28304116	     57.59063061	      5.83823484	      0.38254079	    -77.65186925	     -5.43069525	     -9.25219237	     26.18436866	     64.63864963	     -8.67356602	     -3.98576215	    -79.11768838	     -4.61754560	     -1.07961505	     26.01074225	    -34.79192613	     -1.27870822	      0.23833225	     18.17337889	     -1.71481466	      3.42779058	     79.77245218	     -9.63446501	     20.31435272	     73.88529253	    114.48201481	      0.51392746	      8.27399814	     29.82389993	     80.92271740	    -19.64757235	     18.21643641	     75.92588476	    105.14709778	     -1.57081654	      8.29043443	     20.81002107
      0.62500000	      1.05143126	    -19.96161971	     87.20207797	      0.02844861	      1.92032271	      1.27860680	     57.78116631	      5.86552296	      0.25200055	    -76.93059907	     -5.70181057	     -8.72018215	     26.43451649	     64.69378734	     -8.75001706	     -4.01399860	    -78.52529467	     -4.66906489	     -1.02100083	     26.05384537	    -34.79205211	     -1.25542778	      0.28367542	     18.18528145	     -1.73189587	      3.38886221	     78.73866665	     -9.76900905	     20.21353697	     73.83793010	    114.33342083	      0.77823658	      8.42768864	     29.88654627	     79.79077006	    -19.66700704	     17.85089078	     76.10714044	    104.82983915	     -1.88157072	      8.49887471	     20.76278787
      0.62750000	      1.05189609	    -19.89455588	     87.20854194	      0.02829291	      1.91836530	      1.27432633	     57.85153849	      5.83225788	      0.13262820	    -76.14807485	     -5.80602858	     -8.61042824	     26.45378497	     64.64413564	     -8.76778290	     -4.09728761	    -77.87780609	     -4.68636768	     -0.99002920	     26.05891416	    -34.89201013	     -1.27174353	      0.29341375	     18.17336072	     -1.70770100	      3.37263171	     77.89593087	    -10.06476931	     20.38204848	     73.67414644	    114.32240711	      0.88296503	      8.49122426	     29.91551943	     78.99857205	    -19.91143972	     17.99246952	     76.07301140	    104.79351540	     -1.84604918	      8.54347660	     20.79145129
      0.63000000	      1.05831434	    -19.82145930	     87.21531260	      0.02816597	      1.91639759	      1.26993320	     57.90612925	      5.79587281	      0.00184834	    -75.35984229	     -5.98508175	     -8.45012530	     26.46784737	     64.56873559	     -8.79185423	     -4.17823408	    -77.21743566	     -4.72155599	     -0.94465996	     26.06363389	    -34.99735687	     -1.28976199	      0.29952838	     18.13930330	     -1.67282903	      3.34519417	     76.97899264	    -10.34960371	     20.48148364	     73.57034342	    114.28928926	      0.96210247	      8.54685431	     29.93050603	     78.11473581	    -20.14371509	     18.02779870	     76.12046082	    104.72346606	     -1.86044565	      8.54996077	     20.80910569
      0.63250000	      1.06476000	    -19.74668913	     87.21886346	      0.02801627	      1.91435995	      1.26553015	     57.95170531	      5.75334476	     -0.12387774	    -74.56690068	     -6.19478066	     -8.26801942	     26.47760602	     64.48451738	     -8.81472076	     -4.25691650	    -76.56065357	     -4.77137747	     -0.88701531	     26.06790505	    -35.10392561	     -1.30547804	      0.31084132	     18.11322331	     -1.64324720	      3.31627623	     76.03471180	    -10.61851270	     20.53044250	     73.46768342	    114.25198484	      1.01713513	      8.60680147	     29.92727996	     77.18364934	    -20.35122723	     17.99029436	     76.18465376	    104.64007924	     -1.91617424	      8.53059904	     20.81522154
